# xmcd
#
# Track frame offsets:
#	150
#	22580
#	29932
#	74565
#	89590
#	99420
#	125585
#	148150
#	165492
#	190095
#	214652
#	241925
#	266600
#
# Disc length: 3700 seconds
#
# Revision: 0
# Processed by: cddbd v1.4PL0 Copyright (c) Steve Scherf et al.
# Submitted via: audiograbber 1.80
#
DISCID=ba0e720d
DTITLE=Climax Blues Band - Tightly Knit/Rich Man
DYEAR=1900
DGENRE=
TTITLE0=Who Killed McSwiggin
TTITLE1=Little Link
TTITLE2=St Michael's Blues
TTITLE3=Bide My Time
TTITLE4=That's All
TTITLE5=Rich Man
TTITLE6=Mole On The Dole
TTITLE7=You Make Me Sick
TTITLE8=Standing By A River
TTITLE9=Shake Your Love
TTITLE10=All The Time In The World
TTITLE11=If You Wanna Know
TTITLE12=Don't You Mind People Grinning In Your Face
EXTD=
EXTT0=
EXTT1=
EXTT2=
EXTT3=
EXTT4=
EXTT5=
EXTT6=
EXTT7=
EXTT8=
EXTT9=
EXTT10=
EXTT11=
EXTT12=
PLAYORDER=
